<svg width="16" height="16" viewBox="0 0 16 16" fill="none" xmlns="http://www.w3.org/2000/svg">
<path d="M11.3971 4.3369C11.5675 4.17471 11.7942 4.08504 12.0294 4.08682C12.2646 4.0886 12.49 4.18169 12.6578 4.34644C12.8257 4.5112 12.9231 4.73474 12.9293 4.96989C12.9355 5.20503 12.8501 5.4334 12.6912 5.6068L7.86557 11.6418C7.78259 11.7312 7.68244 11.8029 7.57111 11.8527C7.45978 11.9025 7.33956 11.9293 7.21762 11.9316C7.09569 11.9338 6.97455 11.9115 6.86145 11.8658C6.74836 11.8202 6.64562 11.7523 6.55939 11.666L3.35926 8.46588C3.27014 8.38284 3.19866 8.28269 3.14908 8.17143C3.0995 8.06016 3.07285 7.94005 3.0707 7.81826C3.06855 7.69647 3.09095 7.57549 3.13657 7.46254C3.18219 7.3496 3.2501 7.247 3.33623 7.16086C3.42236 7.07473 3.52496 7.00683 3.63791 6.96121C3.75086 6.91559 3.87183 6.89318 3.99363 6.89533C4.11542 6.89748 4.23553 6.92414 4.3468 6.97371C4.45806 7.02329 4.5582 7.09477 4.64125 7.18389L7.17378 9.71521L11.3729 4.36351C11.3804 4.35417 11.3885 4.34529 11.3971 4.3369Z" fill="#FFFFFF"/>
</svg>
