<svg width="32" height="33" viewBox="0 0 32 33" fill="none" xmlns="http://www.w3.org/2000/svg">
<path d="M0 0.5H26C29.3137 0.5 32 3.18629 32 6.5V26.5C32 29.8137 29.3137 32.5 26 32.5H0V0.5Z" fill="#F3F6F8"/>
<g clip-path="url(#clip0_56686_14959)">
<path d="M22.4946 17.382C22.5296 17.094 22.5558 16.806 22.5558 16.5C22.5558 16.194 22.5296 15.906 22.4946 15.618L24.3384 14.133C24.5044 13.998 24.5481 13.755 24.4433 13.557L22.6956 10.443C22.5907 10.245 22.3548 10.173 22.1625 10.245L19.9867 11.145C19.5323 10.785 19.0429 10.488 18.5099 10.263L18.1778 7.878C18.1516 7.662 17.9681 7.5 17.7496 7.5H14.2542C14.0358 7.5 13.8523 7.662 13.8261 7.878L13.494 10.263C12.9609 10.488 12.4716 10.794 12.0172 11.145L9.84132 10.245C9.64034 10.164 9.41314 10.245 9.30828 10.443L7.56059 13.557C7.44699 13.755 7.49942 13.998 7.66545 14.133L9.50926 15.618C9.47431 15.906 9.44809 16.203 9.44809 16.5C9.44809 16.797 9.47431 17.094 9.50926 17.382L7.66545 18.867C7.49942 19.002 7.45572 19.245 7.56059 19.443L9.30828 22.557C9.41314 22.755 9.64908 22.827 9.84132 22.755L12.0172 21.855C12.4716 22.215 12.9609 22.512 13.494 22.737L13.8261 25.122C13.8523 25.338 14.0358 25.5 14.2542 25.5H17.7496C17.9681 25.5 18.1516 25.338 18.1778 25.122L18.5099 22.737C19.0429 22.512 19.5323 22.206 19.9867 21.855L22.1625 22.755C22.3635 22.836 22.5907 22.755 22.6956 22.557L24.4433 19.443C24.5481 19.245 24.5044 19.002 24.3384 18.867L22.4946 17.382ZM16.0019 19.65C14.3154 19.65 12.9435 18.237 12.9435 16.5C12.9435 14.763 14.3154 13.35 16.0019 13.35C17.6885 13.35 19.0604 14.763 19.0604 16.5C19.0604 18.237 17.6885 19.65 16.0019 19.65Z" fill="#606483"/>
</g>
<defs>
<clipPath id="clip0_56686_14959">
<rect width="18" height="18" fill="white" transform="translate(7 7.5)"/>
</clipPath>
</defs>
</svg>
