<svg width="20" height="20" viewBox="0 0 20 20" fill="none" xmlns="http://www.w3.org/2000/svg">
<path fill-rule="evenodd" clip-rule="evenodd" d="M7.45662 3.70221C7.29022 3.50402 7.00355 3.45805 6.78352 3.59426L5.55646 4.35388C4.59363 4.94992 4.14402 5.98173 4.45152 6.92931C4.88322 8.25958 5.68139 10.1055 7.13824 12.069C8.59718 14.0354 10.2961 15.3546 11.6029 16.1717C12.5279 16.75 13.7459 16.4978 14.5554 15.5711L15.5186 14.4682C15.6937 14.2678 15.6895 13.9675 15.5088 13.772L13.9391 12.0737C13.7808 11.9023 13.5277 11.8572 13.3199 11.9632L11.7847 12.7465C11.5965 12.8425 11.3745 12.8457 11.1835 12.7553C10.3049 12.3391 9.542 11.527 8.96679 10.7689C8.37995 9.99551 7.92804 9.19666 7.68891 8.70985C7.5769 8.48183 7.60109 8.21043 7.75166 8.00581L9.05877 6.2295C9.20124 6.03588 9.19272 5.76992 9.03815 5.58583L7.45662 3.70221ZM6.06644 2.43592C6.86194 1.94346 7.89835 2.10968 8.49996 2.8262L10.0815 4.70981C10.6403 5.37539 10.6711 6.33695 10.156 7.03693L9.10049 8.47139C9.32752 8.88597 9.65651 9.42413 10.0521 9.94547C10.5027 10.5393 10.9987 11.0562 11.4878 11.3685L12.7007 10.7497C13.4522 10.3663 14.367 10.5294 14.9396 11.149L16.5093 12.8474C17.1625 13.5541 17.1778 14.6396 16.5447 15.3644L15.5815 16.4673C14.4269 17.7891 12.4873 18.3313 10.8807 17.3268C9.46979 16.4447 7.62941 15.0174 6.04415 12.8808C4.48529 10.7797 3.62512 8.79631 3.15571 7.34982C2.6141 5.68084 3.46324 4.04745 4.83938 3.19554L6.06644 2.43592Z" fill="#7CC076"/>
</svg>
