<svg width="32" height="32" viewBox="0 0 32 32" fill="none" xmlns="http://www.w3.org/2000/svg">
<rect width="32" height="32" rx="4" fill="#F3F6F8"/>
<path d="M17 8C17 7.7193 17.0994 7.48538 17.2982 7.29825C17.4971 7.09942 17.731 7 18 7C18.2807 7 18.5146 7.09942 18.7018 7.29825C18.9006 7.48538 19 7.7193 19 8V13.8596C19 13.9181 18.9123 13.8772 18.7368 13.7368C18.5731 13.5848 18.4152 13.4269 18.2632 13.2632C18.1228 13.0877 18.0819 13 18.1404 13H24C24.2807 13 24.5146 13.0994 24.7018 13.2982C24.9006 13.4854 25 13.7193 25 14C25 14.269 24.9006 14.5029 24.7018 14.7018C24.5146 14.9006 24.2807 15 24 15H18.1404C17.8246 15 17.5556 14.8889 17.3333 14.6667C17.1111 14.4444 17 14.1754 17 13.8596V8ZM18.7018 14.7018C18.5263 14.9006 18.2924 15 18 15C17.731 15 17.4971 14.9006 17.2982 14.7018C17.0994 14.5029 17 14.269 17 14C17 13.7076 17.0994 13.4737 17.2982 13.2982L23.2982 7.29825C23.4854 7.09942 23.7193 7 24 7C24.2807 7 24.5146 7.09942 24.7018 7.29825C24.9006 7.48538 25 7.7193 25 8C25 8.2807 24.9006 8.51462 24.7018 8.70175L18.7018 14.7018ZM8 19C7.73099 19 7.49708 18.9006 7.29825 18.7018C7.09942 18.5029 7 18.269 7 18C7 17.7193 7.09942 17.4854 7.29825 17.2982C7.49708 17.0994 7.73099 17 8 17H13.8596C14.1754 17 14.4444 17.1111 14.6667 17.3333C14.8889 17.5556 15 17.8246 15 18.1404V24C15 24.269 14.9006 24.5029 14.7018 24.7018C14.5146 24.9006 14.2807 25 14 25C13.731 25 13.4971 24.9006 13.2982 24.7018C13.0994 24.5029 13 24.269 13 24V18.1404C13 18.0819 13.0819 18.1287 13.2456 18.2807C13.4211 18.4211 13.5789 18.5789 13.7193 18.7544C13.8713 18.9181 13.9181 19 13.8596 19H8ZM13.2982 17.2982C13.4854 17.0994 13.7193 17 14 17C14.2807 17 14.5146 17.0994 14.7018 17.2982C14.9006 17.4854 15 17.7193 15 18C15 18.2807 14.9006 18.5146 14.7018 18.7018L8.70175 24.7018C8.52632 24.9006 8.2924 25 8 25C7.73099 25 7.49708 24.9006 7.29825 24.7018C7.09942 24.5029 7 24.269 7 24C7 23.7076 7.09942 23.4737 7.29825 23.2982L13.2982 17.2982Z" fill="#606483"/>
</svg>
