<svg width="16" height="16" viewBox="0 0 16 16" fill="none" xmlns="http://www.w3.org/2000/svg">
<path d="M0.876953 2C0.876953 0.895431 1.77238 0 2.87695 0H14.877C15.9815 0 16.877 0.895431 16.877 2V14C16.877 15.1046 15.9815 16 14.877 16H2.87695C1.77238 16 0.876953 15.1046 0.876953 14V2Z" fill="#FAFCFD"/>
<path d="M2.87695 1H14.877V-1H2.87695V1ZM15.877 2V14H17.877V2H15.877ZM14.877 15H2.87695V17H14.877V15ZM1.87695 14V2H-0.123047V14H1.87695ZM2.87695 15C2.32467 15 1.87695 14.5523 1.87695 14H-0.123047C-0.123047 15.6569 1.2201 17 2.87695 17V15ZM15.877 14C15.877 14.5523 15.4292 15 14.877 15V17C16.5338 17 17.877 15.6569 17.877 14H15.877ZM14.877 1C15.4292 1 15.877 1.44772 15.877 2H17.877C17.877 0.343146 16.5338 -1 14.877 -1V1ZM2.87695 -1C1.2201 -1 -0.123047 0.343146 -0.123047 2H1.87695C1.87695 1.44772 2.32467 1 2.87695 1V-1Z" fill="#D8DEEB"/>
</svg>
