<svg width="17" height="17" viewBox="0 0 17 17" fill="none" xmlns="http://www.w3.org/2000/svg">
<path d="M12.6119 10.4158V5.61436M4.83769 10.1201V5.61544M2.46156 14.8683L6.18325 11.4669M2.46156 14.8683C2.69688 15.0657 3.3017 15.0365 3.42136 15.0286C3.4354 15.0277 3.44916 15.0271 3.46323 15.0271H14.247C14.2605 15.0271 14.2737 15.0266 14.2872 15.025C14.3868 15.0137 14.8319 14.949 14.9885 14.6872M2.46156 14.8683C2.32099 14.7525 2.34943 13.9889 2.3541 13.8827C2.35447 13.8743 2.35466 13.8663 2.35466 13.8579V8.84733C2.35466 8.84733 2.35466 8.84733 2.35466 8.84733C2.35466 8.84733 2.35466 8.377 2.35466 8.17302M14.9885 14.6872C13.5276 13.4122 11.236 11.4669 11.236 11.4669M14.9885 14.6872C15.183 14.3551 15.1607 13.739 15.1551 13.6294C15.1545 13.618 15.1541 13.6068 15.1541 13.5954V8.66518C15.1541 8.66518 15.1541 8.66518 15.1541 8.66518C15.1541 8.66518 15.1541 8.38044 15.044 8.17302M15.044 8.17302L11.236 11.4669M15.044 8.17302C14.9148 7.92945 14.7122 7.68748 14.6619 7.62889C14.6542 7.61989 14.6461 7.61136 14.6376 7.60304L12.6119 5.61436M2.35466 8.17302L6.18325 11.4669M2.35466 8.17302C2.35466 7.95708 2.81315 7.529 2.85429 7.49103C2.85647 7.48902 2.85831 7.48731 2.86046 7.48527L4.83769 5.61544M4.83769 5.61544V4.38301C4.83769 4.10687 5.06155 3.88301 5.33769 3.88301H6.56206M6.56206 3.88301L8.35928 2.34646C8.54473 2.18791 8.81753 2.18636 9.00477 2.34278L10.8484 3.88301M6.56206 3.88301H10.8484M12.6119 5.61436V4.38301C12.6119 4.10687 12.3881 3.88301 12.1119 3.88301H10.8484M6.18325 11.4669L8.34389 9.45766C8.53419 9.2807 8.82831 9.27901 9.02063 9.45377L11.236 11.4669" stroke="#41A996"/>
</svg>
