<svg width="20" height="21" viewBox="0 0 20 21" fill="none" xmlns="http://www.w3.org/2000/svg">
<g clip-path="url(#clip0_55047_71732)">
<path d="M14.3115 3.86285V4.52951H14.9781H15.8078C16.3522 4.52951 16.8004 4.9777 16.8004 5.5221V17.1369C16.8004 17.6813 16.3522 18.1295 15.8078 18.1295H4.19295C3.9297 18.1295 3.67723 18.0249 3.49108 17.8388C3.30498 17.6527 3.20041 17.4003 3.20036 17.1371C3.20036 17.1371 3.20036 17.137 3.20036 17.1369L3.20865 5.52258V5.5221C3.20865 4.97115 3.64677 4.52951 4.19295 4.52951H5.02258H5.68925V3.86285V2.87025H6.01517V3.86285V4.52951H6.68184H13.3189H13.9855V3.86285V2.87025H14.3115V3.86285Z" stroke="#606483" stroke-width="1.33333"/>
<rect x="3" y="4.5" width="14" height="3" rx="1" fill="#606483"/>
<rect x="5" y="11.5" width="1.5" height="1.5" fill="#606483"/>
<rect x="5" y="14.5" width="1.5" height="1.5" fill="#606483"/>
<rect x="8" y="11.5" width="1.5" height="1.5" fill="#606483"/>
<rect x="8" y="14.5" width="1.5" height="1.5" fill="#606483"/>
<rect x="11" y="8.5" width="1.5" height="1.5" fill="#606483"/>
<rect x="11" y="11.5" width="1.5" height="1.5" fill="#606483"/>
<rect x="11" y="14.5" width="1.5" height="1.5" fill="#606483"/>
<rect x="14" y="8.5" width="1.5" height="1.5" fill="#606483"/>
<rect x="14" y="11.5" width="1.5" height="1.5" fill="#606483"/>
</g>
<defs>
<clipPath id="clip0_55047_71732">
<rect width="20" height="20" fill="white" transform="translate(0 0.5)"/>
</clipPath>
</defs>
</svg>
