<svg width="17" height="16" viewBox="0 0 17 16" fill="none" xmlns="http://www.w3.org/2000/svg">
<path d="M0.964844 4C0.964844 1.79086 2.7557 0 4.96484 0H12.9648C15.174 0 16.9648 1.79086 16.9648 4V12C16.9648 14.2091 15.174 16 12.9648 16H4.96484C2.7557 16 0.964844 14.2091 0.964844 12V4Z" fill="#FFA438"/>
<path d="M12.4404 5.56594H10.8603V5.26168C10.8601 5.01968 10.7601 4.78767 10.5824 4.61655C10.4047 4.44543 10.1638 4.34918 9.91246 4.34891H8.0167C7.76539 4.34918 7.52446 4.44543 7.34676 4.61655C7.16906 4.78767 7.0691 5.01968 7.06882 5.26168V5.56594H5.48934C5.3218 5.56612 5.16118 5.63029 5.04271 5.74437C4.92425 5.85845 4.85761 6.01312 4.85742 6.17445V11.0426C4.85761 11.2039 4.92425 11.3586 5.04271 11.4727C5.16118 11.5867 5.3218 11.6509 5.48934 11.6511H12.4404C12.608 11.6509 12.7686 11.5867 12.8871 11.4727C13.0055 11.3586 13.0722 11.2039 13.0724 11.0426V6.17445C13.0722 6.01312 13.0055 5.85845 12.8871 5.74437C12.7686 5.63029 12.608 5.56612 12.4404 5.56594ZM7.70074 7.08722C7.70074 7.16792 7.66745 7.24531 7.6082 7.30236C7.54894 7.35942 7.46858 7.39148 7.38478 7.39148C7.30098 7.39148 7.22062 7.35942 7.16136 7.30236C7.10211 7.24531 7.06882 7.16792 7.06882 7.08722V6.47871C7.06882 6.39801 7.10211 6.32063 7.16136 6.26357C7.22062 6.20651 7.30098 6.17445 7.38478 6.17445C7.46858 6.17445 7.54894 6.20651 7.6082 6.26357C7.66745 6.32063 7.70074 6.39801 7.70074 6.47871V7.08722ZM7.70074 5.26168C7.70084 5.18102 7.73417 5.10369 7.7934 5.04665C7.85263 4.98961 7.93293 4.95752 8.0167 4.95742H9.91246C9.99622 4.95752 10.0765 4.98961 10.1358 5.04665C10.195 5.10369 10.2283 5.18102 10.2284 5.26168V5.56594H7.70074V5.26168ZM10.8603 7.08722C10.8603 7.16792 10.827 7.24531 10.7678 7.30236C10.7085 7.35942 10.6282 7.39148 10.5444 7.39148C10.4606 7.39148 10.3802 7.35942 10.321 7.30236C10.2617 7.24531 10.2284 7.16792 10.2284 7.08722V6.47871C10.2284 6.39801 10.2617 6.32063 10.321 6.26357C10.3802 6.20651 10.4606 6.17445 10.5444 6.17445C10.6282 6.17445 10.7085 6.20651 10.7678 6.26357C10.827 6.32063 10.8603 6.39801 10.8603 6.47871V7.08722Z" fill="white"/>
</svg>
