<svg width="18" height="17" viewBox="0 0 18 17" fill="none" xmlns="http://www.w3.org/2000/svg">
<path d="M14.9761 15.2219V3.28541C14.9761 2.81391 14.7888 2.36173 14.4554 2.02833C14.122 1.69493 13.6698 1.50763 13.1984 1.50763H4.30946C3.83797 1.50763 3.38578 1.69493 3.05238 2.02833C2.71899 2.36173 2.53168 2.81391 2.53168 3.28541V15.2219M14.9761 15.2219H2.53168M14.9761 15.2219H16.7539M14.9761 15.2219H10.5317M2.53168 15.2219H0.753906M2.53168 15.2219H6.97613M10.5317 15.2219V13.0632C10.5317 12.8274 10.438 12.6013 10.2713 12.4346C10.1046 12.2679 9.87854 12.1743 9.6428 12.1743H7.86502C7.62927 12.1743 7.40318 12.2679 7.23648 12.4346C7.06978 12.6013 6.97613 12.8274 6.97613 13.0632V15.2219M10.5317 15.2219H6.97613M6.08724 5.06318H6.97613M6.08724 8.61874H6.97613M10.5317 5.06318H11.4206M10.5317 8.61874H11.4206" stroke="#FF5A50" stroke-width="1.2" stroke-linecap="round" stroke-linejoin="round"/>
</svg>
