<svg width="17" height="17" viewBox="0 0 17 17" fill="none" xmlns="http://www.w3.org/2000/svg">
<path d="M3.42074 4.99994H14.0874C14.5476 4.99994 14.9207 5.37304 14.9207 5.83327V12.4999C14.9207 12.9602 14.5476 13.3333 14.0874 13.3333H3.42074C2.9605 13.3333 2.5874 12.9602 2.5874 12.4999V5.83327C2.5874 5.37303 2.9605 4.99994 3.42074 4.99994Z" stroke="#FFA438" stroke-linecap="round" stroke-linejoin="round"/>
<path d="M11.1706 4.79129V3.72441C11.1706 3.47693 11.0477 3.23959 10.8289 3.0646C10.6101 2.8896 10.3133 2.79129 10.0039 2.79129H7.67057C7.36115 2.79129 7.06441 2.8896 6.84562 3.0646C6.62682 3.23959 6.50391 3.47693 6.50391 3.72441V4.79129" stroke="#FFA438" stroke-linejoin="round"/>
<path d="M13.8374 4.7913V6.56943C13.8374 6.9819 13.574 7.37747 13.1052 7.66913C12.6363 7.96078 12.0004 8.12463 11.3374 8.12463H6.3374C5.67436 8.12463 5.03848 7.96078 4.56964 7.66913C4.10079 7.37747 3.8374 6.9819 3.8374 6.56943V4.7913" stroke="#FFA438" stroke-linejoin="round"/>
<path d="M7.7124 9.16663H9.79574" stroke="#FFA438" stroke-linecap="round"/>
</svg>
