<svg width="32" height="32" viewBox="0 0 32 32" fill="none" xmlns="http://www.w3.org/2000/svg">
<path d="M0 6C0 2.68629 2.68629 0 6 0H26C29.3137 0 32 2.68629 32 6V26C32 29.3137 29.3137 32 26 32H6C2.68629 32 0 29.3137 0 26V6Z" fill="#FFA438"/>
<path d="M24.1097 10.3205H20.4228V9.61057C20.4222 9.04591 20.1889 8.50456 19.7743 8.10528C19.3597 7.706 18.7975 7.48141 18.2111 7.48077H13.7877C13.2013 7.48141 12.6391 7.706 12.2245 8.10528C11.8098 8.50456 11.5766 9.04591 11.5759 9.61057V10.3205H7.89049C7.49957 10.3209 7.12479 10.4707 6.84836 10.7368C6.57194 11.003 6.41645 11.3639 6.41602 11.7404V23.0993C6.41645 23.4758 6.57194 23.8367 6.84836 24.1028C7.12479 24.369 7.49957 24.5188 7.89049 24.5192H24.1097C24.5007 24.5188 24.8754 24.369 25.1519 24.1028C25.4283 23.8367 25.5838 23.4758 25.5842 23.0993V11.7404C25.5838 11.3639 25.4283 11.003 25.1519 10.7368C24.8754 10.4707 24.5007 10.3209 24.1097 10.3205ZM13.0504 13.8702C13.0504 14.0585 12.9728 14.239 12.8345 14.3722C12.6962 14.5053 12.5087 14.5801 12.3132 14.5801C12.1177 14.5801 11.9301 14.5053 11.7919 14.3722C11.6536 14.239 11.5759 14.0585 11.5759 13.8702V12.4503C11.5759 12.262 11.6536 12.0814 11.7919 11.9483C11.9301 11.8152 12.1177 11.7404 12.3132 11.7404C12.5087 11.7404 12.6962 11.8152 12.8345 11.9483C12.9728 12.0814 13.0504 12.262 13.0504 12.4503V13.8702ZM13.0504 9.61057C13.0507 9.42236 13.1284 9.24192 13.2666 9.10884C13.4048 8.97575 13.5922 8.90088 13.7877 8.90064H18.2111C18.4065 8.90088 18.5939 8.97575 18.7321 9.10884C18.8703 9.24192 18.9481 9.42236 18.9483 9.61057V10.3205H13.0504V9.61057ZM20.4228 13.8702C20.4228 14.0585 20.3451 14.239 20.2069 14.3722C20.0686 14.5053 19.8811 14.5801 19.6856 14.5801C19.49 14.5801 19.3025 14.5053 19.1643 14.3722C19.026 14.239 18.9483 14.0585 18.9483 13.8702V12.4503C18.9483 12.262 19.026 12.0814 19.1643 11.9483C19.3025 11.8152 19.49 11.7404 19.6856 11.7404C19.8811 11.7404 20.0686 11.8152 20.2069 11.9483C20.3451 12.0814 20.4228 12.262 20.4228 12.4503V13.8702Z" fill="white"/>
</svg>
