<svg width="16" height="17" viewBox="0 0 16 17" fill="none" xmlns="http://www.w3.org/2000/svg">
<g clip-path="url(#clip0_55036_67711)">
<path d="M12.712 8.50597C12.8227 8.30606 12.9985 8.15009 13.2102 8.06403C13.4219 7.97797 13.6567 7.96701 13.8755 8.03297L14.234 8.14097L14.33 8.17297C14.627 8.28162 14.8889 8.4687 15.0881 8.71433C15.2872 8.95996 15.4161 9.25496 15.461 9.56797C15.6095 10.602 15.2775 11.811 14.477 13.1975C13.6785 14.5805 12.7995 15.4715 11.832 15.8615C11.5211 15.9868 11.1808 16.0201 10.8515 15.9577C10.5223 15.8952 10.2178 15.7394 9.9745 15.509L9.7035 15.252L9.6425 15.189C9.49179 15.0189 9.40348 14.8026 9.39212 14.5757C9.38076 14.3488 9.44702 14.1247 9.58 13.9405L10.2585 13.0005L10.304 12.9435C10.3993 12.8355 10.5237 12.7572 10.6622 12.718C10.8008 12.6789 10.9478 12.6804 11.0855 12.7225L12.111 13.036L12.1375 13.041H12.159C12.2815 13.0275 12.5305 12.78 12.8365 12.25C13.1765 11.661 13.2465 11.3165 13.153 11.2275L12.6315 10.7415L12.565 10.675C12.399 10.4951 12.2895 10.2703 12.2502 10.0287C12.2109 9.78706 12.2435 9.53922 12.344 9.31597L12.675 8.58047L12.712 8.50597Z" stroke="#2F93E1"/>
<path d="M10.03 11.1641L10.3465 11.5317L10.03 11.1641C9.95194 11.2313 9.85626 11.3019 9.73631 11.3884C9.72224 11.3985 9.70784 11.4088 9.69316 11.4194C9.58833 11.4948 9.46915 11.5804 9.35211 11.6726C9.08527 11.8826 8.78554 12.1589 8.58382 12.5405C8.50461 12.6903 8.4104 12.8173 8.3139 12.9011C8.22028 12.9824 8.14723 13.005 8.09009 13.005H4.32908C4.1859 13.005 4.06982 12.8889 4.06982 12.7457V11.6532C4.06982 10.6714 4.86576 9.87544 5.8476 9.87544H8.71209C9.21431 9.87544 9.79146 10.1506 10.1128 10.4912C10.2729 10.6609 10.318 10.7916 10.3211 10.8568L10.3211 10.8571C10.3223 10.8834 10.3255 10.9512 10.1741 11.0536C10.1263 11.0858 10.0784 11.1225 10.03 11.1641Z" stroke="#2F93E1"/>
<path fill-rule="evenodd" clip-rule="evenodd" d="M1.09009 4.36078C1.09009 3.25621 1.98552 2.36078 3.09009 2.36078H12.7459C13.8505 2.36078 14.7459 3.25621 14.7459 4.36078V6.47279H13.9459V4.36078C13.9459 3.69804 13.4086 3.16078 12.7459 3.16078H3.09009C2.42735 3.16078 1.89009 3.69804 1.89009 4.36078V11.4719C1.89009 12.1347 2.42735 12.6719 3.09009 12.6719H5.9194V13.4719H3.09009C1.98552 13.4719 1.09009 12.5765 1.09009 11.4719V4.36078Z" fill="#2F93E1"/>
<path d="M8.66975 6.46737C8.66975 7.31382 7.98357 8 7.13712 8C6.29067 8 5.60449 7.31382 5.60449 6.46737C5.60449 5.62092 6.29067 4.93474 7.13712 4.93474C7.98357 4.93474 8.66975 5.62092 8.66975 6.46737Z" stroke="#2F93E1"/>
</g>
<defs>
<clipPath id="clip0_55036_67711">
<rect width="16" height="16" fill="white" transform="translate(0 0.5)"/>
</clipPath>
</defs>
</svg>
