<svg width="17" height="16" viewBox="0 0 17 16" fill="none" xmlns="http://www.w3.org/2000/svg">
<path d="M0.964844 4C0.964844 1.79086 2.7557 0 4.96484 0H12.9648C15.174 0 16.9648 1.79086 16.9648 4V12C16.9648 14.2091 15.174 16 12.9648 16H4.96484C2.7557 16 0.964844 14.2091 0.964844 12V4Z" fill="#FFA438"/>
<path d="M8.32656 8.83932H11.6202C11.8708 8.83932 12.1111 8.9389 12.2883 9.11616C12.4655 9.29341 12.565 9.53383 12.565 9.7845V10.1647C12.565 10.3917 12.516 10.616 12.4213 10.8223C12.3265 11.0286 12.1883 11.2119 12.0162 11.3598C11.3585 11.9244 10.4179 12.2 9.20424 12.2H9.12907C9.19233 12.0724 9.21723 11.9292 9.20076 11.7878C9.18429 11.6463 9.12715 11.5127 9.03627 11.4031L8.98965 11.3527L8.05318 10.4184C8.33032 9.94159 8.42718 9.38111 8.32614 8.8389L8.32656 8.83932ZM6.05468 7.36902C6.41359 7.3691 6.76506 7.47143 7.06797 7.66403C7.37087 7.85663 7.61268 8.13153 7.76511 8.45658C7.91754 8.78163 7.97427 9.14339 7.92868 9.49952C7.88309 9.85564 7.73706 10.1914 7.50768 10.4676L8.69317 11.6497C8.74982 11.7058 8.78311 11.7812 8.78633 11.8609C8.78955 11.9405 8.76247 12.0185 8.71054 12.0789C8.65861 12.1394 8.5857 12.1779 8.50649 12.1868C8.42729 12.1956 8.34769 12.174 8.28373 12.1265L8.24803 12.0958L7.02894 10.8792C6.77934 11.0295 6.49839 11.1199 6.20806 11.1435C5.91772 11.1672 5.62586 11.1234 5.35526 11.0155C5.08466 10.9076 4.84264 10.7386 4.64813 10.5217C4.45361 10.3048 4.31185 10.0459 4.23392 9.76512C4.15599 9.48435 4.144 9.18936 4.19889 8.90319C4.25378 8.61701 4.37406 8.34741 4.55034 8.11543C4.72662 7.88345 4.95412 7.69538 5.21508 7.5659C5.47603 7.43642 5.76338 7.36904 6.05468 7.36902ZM6.05468 7.99915C5.72055 7.99915 5.40011 8.13192 5.16384 8.36827C4.92758 8.60461 4.79485 8.92516 4.79485 9.2594C4.79485 9.59364 4.92758 9.91419 5.16384 10.1505C5.40011 10.3869 5.72055 10.5197 6.05468 10.5197C6.3888 10.5197 6.70924 10.3869 6.94551 10.1505C7.18177 9.91419 7.3145 9.59364 7.3145 9.2594C7.3145 8.92516 7.18177 8.60461 6.94551 8.36827C6.70924 8.13192 6.3888 7.99915 6.05468 7.99915ZM9.20424 3.79999C9.76112 3.79999 10.2952 4.02128 10.689 4.41519C11.0827 4.80909 11.304 5.34334 11.304 5.90041C11.304 6.45747 11.0827 6.99172 10.689 7.38563C10.2952 7.77953 9.76112 8.00083 9.20424 8.00083C8.64736 8.00083 8.11329 7.77953 7.71952 7.38563C7.32575 6.99172 7.10453 6.45747 7.10453 5.90041C7.10453 5.34334 7.32575 4.80909 7.71952 4.41519C8.11329 4.02128 8.64736 3.79999 9.20424 3.79999Z" fill="white"/>
</svg>
