<svg width="32" height="32" viewBox="0 0 32 32" fill="none" xmlns="http://www.w3.org/2000/svg">
<rect width="32" height="32" rx="4" fill="#F3F6F8"/>
<path d="M25 14C25 14.269 24.9006 14.5029 24.7018 14.7018C24.5146 14.9006 24.2807 15 24 15C23.731 15 23.4971 14.9006 23.2982 14.7018C23.0994 14.5029 23 14.269 23 14V8.14035C23 8.08187 23.0819 8.12865 23.2456 8.2807C23.4211 8.42105 23.5789 8.57895 23.7193 8.75439C23.8713 8.91813 23.9181 9 23.8596 9H18C17.731 9 17.4971 8.90058 17.2982 8.70175C17.0994 8.50292 17 8.26901 17 8C17 7.7193 17.0994 7.48538 17.2982 7.29825C17.4971 7.09942 17.731 7 18 7H23.8596C24.1754 7 24.4444 7.11111 24.6667 7.33333C24.8889 7.55556 25 7.82456 25 8.14035V14ZM18.7018 14.7018C18.5263 14.9006 18.2924 15 18 15C17.731 15 17.4971 14.9006 17.2982 14.7018C17.0994 14.5029 17 14.269 17 14C17 13.7076 17.0994 13.4737 17.2982 13.2982L23.2982 7.29825C23.4854 7.09942 23.7193 7 24 7C24.2807 7 24.5146 7.09942 24.7018 7.29825C24.9006 7.48538 25 7.7193 25 8C25 8.2807 24.9006 8.51462 24.7018 8.70175L18.7018 14.7018ZM7 18C7 17.7193 7.09942 17.4854 7.29825 17.2982C7.49708 17.0994 7.73099 17 8 17C8.2807 17 8.51462 17.0994 8.70175 17.2982C8.90058 17.4854 9 17.7193 9 18V23.8596C9 23.9181 8.91228 23.8772 8.73684 23.7368C8.5731 23.5848 8.4152 23.4269 8.26316 23.2632C8.12281 23.0877 8.08187 23 8.14035 23H14C14.2807 23 14.5146 23.0994 14.7018 23.2982C14.9006 23.4854 15 23.7193 15 24C15 24.269 14.9006 24.5029 14.7018 24.7018C14.5146 24.9006 14.2807 25 14 25H8.14035C7.82456 25 7.55556 24.8889 7.33333 24.6667C7.11111 24.4444 7 24.1754 7 23.8596V18ZM13.2982 17.2982C13.4854 17.0994 13.7193 17 14 17C14.2807 17 14.5146 17.0994 14.7018 17.2982C14.9006 17.4854 15 17.7193 15 18C15 18.2807 14.9006 18.5146 14.7018 18.7018L8.70175 24.7018C8.52632 24.9006 8.2924 25 8 25C7.73099 25 7.49708 24.9006 7.29825 24.7018C7.09942 24.5029 7 24.269 7 24C7 23.7076 7.09942 23.4737 7.29825 23.2982L13.2982 17.2982Z" fill="#606483"/>
</svg>
