<svg width="89" height="89" viewBox="0 0 89 89" fill="none" xmlns="http://www.w3.org/2000/svg">
<path d="M72.5283 16.5542H67.5265L59.4972 59.4967C59.2778 60.3215 58.8061 61.016 58.0822 61.5803C57.3582 62.1447 56.6013 62.4268 55.8116 62.4268H19.8114C18.9777 62.4268 18.1989 62.1447 17.475 61.5803C16.751 61.016 16.2793 60.3215 16.06 59.4967L9.6102 34.9488C9.17144 33.3861 9.23725 32.0187 9.80764 30.8466C10.378 29.6746 11.2555 29.0886 12.4402 29.0886L60.2938 28.4881L64.8966 15.2844C65.1159 14.5031 65.5876 13.8302 66.3116 13.2659C67.0355 12.7016 67.7924 12.4194 68.5821 12.4194H72.5283C73.713 12.4194 79.3641 12.4194 79.397 13.624C79.5166 13.7423 79.4869 15.1955 79.3641 15.317C79.3641 16.5542 73.6691 16.5542 72.5283 16.5542Z" stroke="#B6C2DA" stroke-width="2"/>
<path d="M30.4832 69.4619C29.4663 68.4557 28.2314 67.9526 26.7785 67.9526C25.3257 67.9526 24.0908 68.4557 23.0738 69.4619C22.0569 70.468 21.5484 71.6898 21.5484 73.1271C21.5484 74.5645 22.0569 75.7863 23.0738 76.7924C24.0908 77.7986 25.3257 78.3017 26.7785 78.3017C28.2314 78.3017 29.4663 77.7986 30.4832 76.7924C31.5002 75.7863 32.0087 74.5645 32.0087 73.1271C32.0087 71.6898 31.5002 70.468 30.4832 69.4619Z" stroke="#B6C2DA" stroke-width="2"/>
<path d="M51.0164 69.4619C49.9994 68.4557 48.7645 67.9526 47.3117 67.9526C45.8589 67.9526 44.624 68.4557 43.607 69.4619C42.5901 70.468 42.0816 71.6898 42.0816 73.1271C42.0816 74.5645 42.5901 75.7863 43.607 76.7924C44.624 77.7986 45.8589 78.3017 47.3117 78.3017C48.7645 78.3017 49.9994 77.7986 51.0164 76.7924C52.0334 75.7863 52.5419 74.5645 52.5419 73.1271C52.5419 71.6898 52.0334 70.468 51.0164 69.4619Z" stroke="#B6C2DA" stroke-width="2"/>
<path d="M38.0488 34.5518C40.2986 34.5518 42.4978 35.2189 44.3684 36.4688C46.239 37.7187 47.697 39.4952 48.558 41.5737C49.4189 43.6522 49.6442 45.9394 49.2053 48.1459C48.7663 50.3524 47.683 52.3793 46.0922 53.9701C44.5013 55.5609 42.4745 56.6443 40.268 57.0832C38.0614 57.5221 35.7743 57.2968 33.6958 56.4359C31.6173 55.5749 29.8408 54.117 28.5909 52.2464C27.341 50.3758 26.6738 48.1765 26.6738 45.9268C26.6738 42.9099 27.8723 40.0166 30.0055 37.8834C32.1387 35.7502 35.032 34.5518 38.0488 34.5518Z" stroke="#B6C2DA" stroke-width="2"/>
<path d="M43.8133 50.0478C44.0986 49.9714 44.3419 49.7847 44.4896 49.5289C44.6372 49.2731 44.6773 48.9691 44.6008 48.6838C44.5244 48.3985 44.3377 48.1552 44.0819 48.0075L38.9629 45.0521V39.8247C38.9629 39.5293 38.8455 39.246 38.6367 39.0371C38.4278 38.8283 38.1445 38.7109 37.8491 38.7109C37.5537 38.7109 37.2705 38.8283 37.0616 39.0371C36.8527 39.246 36.7354 39.5293 36.7354 39.8247V45.7647C36.7358 46.0298 36.8309 46.286 37.0037 46.487C37.1764 46.6881 37.4154 46.8208 37.6774 46.8611C37.7233 46.9002 37.7723 46.9355 37.8239 46.9665L42.9682 49.9365C43.224 50.0842 43.528 50.1243 43.8133 50.0478Z" fill="#B6C2DA"/>
</svg>
