<svg width="89" height="88" viewBox="0 0 89 88" fill="none" xmlns="http://www.w3.org/2000/svg">
<g clip-path="url(#clip0_54146_125340)">
<path d="M72.5283 15.8061H67.5264L59.4971 58.7487C59.2778 59.5734 58.8061 60.268 58.0821 60.8323C57.3582 61.3966 56.6013 61.6788 55.8116 61.6788H19.8113C18.9777 61.6788 18.1989 61.3966 17.4749 60.8323C16.751 60.268 16.2793 59.5734 16.0599 58.7487L9.61018 34.2008C9.17142 32.638 9.23724 31.2706 9.80762 30.0986C10.378 28.9265 11.2555 28.3405 12.4402 28.3405L60.2938 27.74L64.8965 14.5364C65.1159 13.755 65.5876 13.0822 66.3115 12.5179C67.0355 11.9535 67.7923 11.6714 68.5821 11.6714H72.5283C73.713 11.6714 79.3641 11.6714 79.397 12.876C79.5165 12.9942 79.4869 14.4475 79.3641 14.569C79.3641 15.8061 73.6691 15.8061 72.5283 15.8061Z" stroke="#B6C2DA" stroke-width="2"/>
<path d="M30.4832 68.7138C29.4663 67.7077 28.2314 67.2046 26.7786 67.2046C25.3257 67.2046 24.0908 67.7077 23.0739 68.7138C22.0569 69.72 21.5484 70.9417 21.5484 72.3791C21.5484 73.8165 22.0569 75.0382 23.0739 76.0444C24.0908 77.0505 25.3257 77.5536 26.7786 77.5536C28.2314 77.5536 29.4663 77.0505 30.4832 76.0444C31.5002 75.0382 32.0087 73.8165 32.0087 72.3791C32.0087 70.9417 31.5002 69.72 30.4832 68.7138Z" stroke="#B6C2DA" stroke-width="2"/>
<path d="M51.0164 68.7138C49.9995 67.7077 48.7646 67.2046 47.3117 67.2046C45.8589 67.2046 44.624 67.7077 43.607 68.7138C42.5901 69.72 42.0816 70.9417 42.0816 72.3791C42.0816 73.8165 42.5901 75.0382 43.607 76.0444C44.624 77.0505 45.8589 77.5536 47.3117 77.5536C48.7646 77.5536 49.9995 77.0505 51.0164 76.0444C52.0334 75.0382 52.5419 73.8165 52.5419 72.3791C52.5419 70.9417 52.0334 69.72 51.0164 68.7138Z" stroke="#B6C2DA" stroke-width="2"/>
<path d="M42.3793 40.6748L35.0459 48.0081L31.7126 44.6748" stroke="#B6C2DA" stroke-width="2" stroke-linecap="round" stroke-linejoin="round"/>
</g>
<defs>
<clipPath id="clip0_54146_125340">
<rect width="88" height="88" fill="white" transform="translate(0.398438)"/>
</clipPath>
</defs>
</svg>
